HIERARCHY
ROOT Hips
{
	OFFSET 0.000000 0.000000 0.000000
	CHANNELS 6 Xposition Yposition Zposition Zrotation Yrotation Xrotation 
	JOINT LHipJoint
	{
		OFFSET 0.000000 0.000000 0.000000
		CHANNELS 3 Zrotation Yrotation Xrotation
		JOINT LeftUpLeg
		{
			OFFSET 1.363060 -1.794630 0.839290
			CHANNELS 3 Zrotation Yrotation Xrotation
			JOINT LeftLeg
			{
				OFFSET 2.448110 -6.726130 0.000000
				CHANNELS 3 Zrotation Yrotation Xrotation
				JOINT LeftFoot
				{
					OFFSET 2.562200 -7.039590 0.000000
					CHANNELS 3 Zrotation Yrotation Xrotation
					JOINT LeftToeBase
					{
						OFFSET 0.157640 -0.433110 2.322550
						CHANNELS 3 Zrotation Yrotation Xrotation
						End Site
						{
							OFFSET 0.000000 0.000000 0.000000
						}
					}
				}
			}
		}
	}
	JOINT RHipJoint
	{
		OFFSET 0.000000 0.000000 0.000000
		CHANNELS 3 Zrotation Yrotation Xrotation
		JOINT RightUpLeg
		{
			OFFSET -1.305520 -1.794630 0.839290
			CHANNELS 3 Zrotation Yrotation Xrotation
			JOINT RightLeg
			{
				OFFSET -2.542530 -6.985550 0.000000
				CHANNELS 3 Zrotation Yrotation Xrotation
				JOINT RightFoot
				{
					OFFSET -2.568260 -7.056230 0.000000
					CHANNELS 3 Zrotation Yrotation Xrotation
					JOINT RightToeBase
					{
						OFFSET -0.164730 -0.452590 2.363150
						CHANNELS 3 Zrotation Yrotation Xrotation
						End Site
						{
							OFFSET 0.000000 0.000000 0.000000
						}
					}
				}
			}
		}
	}
	JOINT LowerBack
	{
		OFFSET 0.000000 0.000000 0.000000
		CHANNELS 3 Zrotation Yrotation Xrotation
		JOINT Spine
		{
			OFFSET 0.028270 2.035590 -0.193380
			CHANNELS 3 Zrotation Yrotation Xrotation
			JOINT Spine1
			{
				OFFSET 0.056720 2.048850 -0.042750
				CHANNELS 3 Zrotation Yrotation Xrotation
				JOINT Neck
				{
					OFFSET 0.000000 0.000000 0.000000
					CHANNELS 3 Zrotation Yrotation Xrotation
					JOINT Neck1
					{
						OFFSET -0.054170 1.746240 0.172020
						CHANNELS 3 Zrotation Yrotation Xrotation
						JOINT Head
						{
							OFFSET 0.104070 1.761360 -0.123970
							CHANNELS 3 Zrotation Yrotation Xrotation
							End Site
							{
								OFFSET 0.000000 0.000000 0.000000
							}
						}
					}
				}
				JOINT LeftShoulder
				{
					OFFSET 0.000000 0.000000 0.000000
					CHANNELS 3 Zrotation Yrotation Xrotation
					JOINT LeftArm
					{
						OFFSET 3.362410 1.200890 -0.311210
						CHANNELS 3 Zrotation Yrotation Xrotation
						JOINT LeftForeArm
						{
							OFFSET 4.983000 -0.000000 -0.000000
							CHANNELS 3 Zrotation Yrotation Xrotation
							JOINT LeftHand
							{
								OFFSET 3.483560 -0.000000 -0.000000
								CHANNELS 3 Zrotation Yrotation Xrotation
								JOINT LeftFingerBase
								{
									OFFSET 0.000000 0.000000 0.000000
									CHANNELS 3 Zrotation Yrotation Xrotation
									JOINT LeftHandIndex1
									{
										OFFSET 0.715260 -0.000000 -0.000000
										CHANNELS 3 Zrotation Yrotation Xrotation
										End Site
										{
											OFFSET 0.000000 0.000000 0.000000
										}
									}
								}
								JOINT LThumb
								{
									OFFSET 0.000000 0.000000 0.000000
									CHANNELS 3 Zrotation Yrotation Xrotation
									End Site
									{
										OFFSET 0.000000 0.000000 0.000000
									}
								}
							}
						}
					}
				}
				JOINT RightShoulder
				{
					OFFSET 0.000000 0.000000 0.000000
					CHANNELS 3 Zrotation Yrotation Xrotation
					JOINT RightArm
					{
						OFFSET -3.136600 1.374050 -0.404650
						CHANNELS 3 Zrotation Yrotation Xrotation
						JOINT RightForeArm
						{
							OFFSET -5.241900 -0.000000 -0.000000
							CHANNELS 3 Zrotation Yrotation Xrotation
							JOINT RightHand
							{
								OFFSET -3.444170 -0.000000 -0.000000
								CHANNELS 3 Zrotation Yrotation Xrotation
								JOINT RightFingerBase
								{
									OFFSET 0.000000 0.000000 0.000000
									CHANNELS 3 Zrotation Yrotation Xrotation
									JOINT RightHandIndex1
									{
										OFFSET -0.622530 -0.000000 -0.000000
										CHANNELS 3 Zrotation Yrotation Xrotation
										End Site
										{
											OFFSET 0.000000 0.000000 0.000000
										}
									}
								}
								JOINT RThumb
								{
									OFFSET 0.000000 0.000000 0.000000
									CHANNELS 3 Zrotation Yrotation Xrotation
									End Site
									{
										OFFSET 0.000000 0.000000 0.000000
									}
								}
							}
						}
					}
				}
			}
		}
	}
}
MOTION
Frames: 6
Frame Time: 0.008333
-13.533045 14.426966 1.682037 152.569595 57.084872 175.956172 2.834025 -4.406330 -5.111315 -14.131442 -16.240321 -62.832591 13.334935 22.430889 72.257721 1.505113 -5.461509 -9.154871 0.521800 -4.629500 -12.854700 -1.140095 2.736785 -3.412077 -11.680385 -27.420316 -49.838039 -17.410557 -17.398753 83.927516 -2.069080 0.078716 -27.963971 -2.422200 9.695100 -27.994800 -2.155267 8.868312 31.787781 -4.217641 11.744493 2.156667 -11.829677 7.683451 -0.712010 8.098190 21.261644 -10.916678 -17.095950 30.774342 4.211728 -5.288500 13.159200 13.247400 -11.652838 -3.788760 0.393531 -30.252268 -2.746332 -29.611181 7.715108 -17.884639 -3.243249 -2.243145 2.393728 24.010434 52.357108 -19.782665 -26.816700 -7.125000 0.000000 0.000000 16.070000 -2.137700 -17.345000 13.559608 3.001442 0.289651 52.117848 -21.243156 51.312153 -48.536295 52.642675 -25.636216 1.315712 0.399946 -14.108183 -30.077092 -23.419146 13.523700 7.125000 0.000000 0.000000 -2.601700 -56.592200 0.739700 
-13.524201 14.433598 1.670983 152.653740 57.151844 175.836030 2.824162 -4.410075 -5.106670 -14.146915 -16.220434 -62.553611 13.339978 22.433568 72.270839 1.499951 -5.381109 -9.260980 0.476500 -4.427000 -12.281300 -1.160645 2.743496 -3.430771 -11.711558 -27.318981 -49.418483 -17.361461 -17.406411 83.779050 -2.087973 0.105565 -28.070076 -2.419500 9.690000 -27.978500 -2.245652 8.754441 31.768543 -4.139897 11.590608 2.169949 -11.559934 7.620154 -0.470120 6.867162 20.165027 -13.011797 -16.292559 28.851211 4.630767 -5.146400 12.100000 13.123800 -11.602079 -3.837167 0.371253 -30.576471 -2.548427 -29.638975 7.783264 -17.943964 -3.268799 -2.221463 2.385647 23.945028 52.416635 -19.963323 -27.047000 -7.125000 0.000000 0.000000 16.037700 -2.414200 -17.383000 13.619735 2.969258 0.259117 51.574055 -20.817200 51.336277 -48.804606 52.675559 -25.860757 1.310209 0.430659 -14.465163 -29.861052 -23.424890 13.432500 7.125000 0.000000 0.000000 -2.354500 -56.580600 0.668700 
-13.518306 14.436967 1.659823 152.609224 57.180252 175.668375 2.813033 -4.412846 -5.102714 -14.206250 -16.272929 -62.334654 13.338470 22.443218 72.269710 1.494420 -5.302147 -9.363253 0.461400 -4.357400 -12.084400 -1.171059 2.753886 -3.451140 -11.804967 -27.312788 -49.129212 -17.324919 -17.399073 83.667733 -2.090675 0.168811 -28.037791 -2.395700 9.645800 -27.837200 -2.515243 8.630132 31.618754 -4.020837 11.377386 2.166164 -10.975542 7.507977 -0.157765 4.392848 18.618062 -15.420676 -14.291914 26.134065 5.077661 -4.431700 10.687200 12.471900 -11.533929 -3.888313 0.325354 -31.230695 -2.310439 -29.693298 7.924325 -18.082449 -3.315087 -2.182331 2.351626 23.795918 52.524157 -20.146317 -27.289100 -7.125000 0.000000 0.000000 16.017400 -2.695200 -17.435700 13.558844 2.993428 0.131064 52.423302 -20.254483 50.474196 -48.031674 52.311652 -25.209709 1.317990 0.382226 -13.790127 -29.489944 -23.318383 13.170500 7.125000 0.000000 0.000000 -1.963700 -56.344200 0.546400 
-13.514305 14.443705 1.646558 152.626440 57.164986 175.575032 2.803148 -4.409945 -5.087799 -14.258007 -16.392109 -62.118679 13.325112 22.456740 72.237794 1.487424 -5.218334 -9.454926 0.432000 -4.217800 -11.690300 -1.176118 2.768990 -3.467479 -11.881843 -27.341250 -48.848302 -17.279016 -17.384845 83.526917 -2.087349 0.219095 -27.972934 -2.364600 9.587400 -27.650700 -2.658388 8.493486 31.522561 -3.915878 11.174561 2.137150 -10.484094 7.399628 0.157390 1.786527 16.262764 -17.888553 -12.326414 22.597109 5.275967 -3.811300 8.933500 11.832900 -11.500878 -3.879242 0.223444 -31.880509 -2.149542 -29.402243 8.130621 -18.330258 -3.396676 -2.142760 2.286192 23.497008 52.461759 -20.036023 -27.050400 -7.125000 0.000000 0.000000 15.978000 -2.460000 -17.325400 13.580903 3.023233 0.071601 51.493481 -19.672047 51.034891 -48.235080 52.298320 -25.334585 1.297381 0.450234 -14.779132 -28.472594 -23.089814 12.581400 7.125000 0.000000 0.000000 -0.870500 -55.942000 0.233700 
-13.509778 14.462550 1.635714 152.973714 57.229150 175.672649 2.794689 -4.399156 -5.071716 -14.136926 -16.443069 -61.744970 13.293403 22.458938 72.145168 1.500777 -5.236147 -9.588625 0.379700 -3.957400 -10.956900 -1.212510 2.790007 -3.493761 -11.724854 -27.153555 -48.376862 -17.198400 -17.404900 83.285326 -2.078193 0.070442 -28.018585 -2.362300 9.583100 -27.637000 -2.687631 8.358004 31.485770 -3.767385 11.027941 2.159531 -9.871057 7.299950 0.590141 -0.905077 13.438036 -20.337395 -10.416876 18.903113 5.377568 -3.138600 7.121900 11.411700 -11.461364 -3.812183 0.089939 -32.665632 -2.082690 -29.212427 8.318915 -18.543566 -3.468571 -2.100435 2.227057 23.285970 52.550534 -19.910929 -26.930800 -7.125000 0.000000 0.000000 16.026500 -2.293900 -17.337000 13.594678 3.104463 0.015667 50.468659 -19.193123 51.222138 -48.515156 52.385613 -25.776032 1.382354 0.465133 -15.452395 -33.652185 -24.390579 15.989800 7.125000 0.000000 0.000000 -6.679900 -58.477600 2.208100 
-13.510936 14.477184 1.629187 153.383118 57.387542 175.928462 2.793761 -4.377416 -5.068877 -13.900020 -16.439419 -61.554787 13.259638 22.455025 72.043996 1.498788 -5.173418 -9.689195 0.389900 -4.009700 -11.103900 -1.258306 2.811125 -3.518530 -11.439410 -26.828208 -48.139992 -17.119845 -17.444756 83.051642 -2.051543 -0.214181 -28.047874 -2.386400 9.628400 -27.781400 -2.976364 8.169688 31.179475 -3.564798 10.774705 2.231665 -8.848421 7.092479 1.077156 -3.325041 10.248137 -21.856089 -8.744390 14.868195 4.648982 -2.615700 5.290000 10.658200 -11.428482 -3.693705 -0.030958 -33.760767 -1.843551 -29.742214 8.474192 -18.669149 -3.508203 -2.045501 2.179767 23.328010 52.674548 -20.030743 -27.092200 -7.125000 0.000000 0.000000 16.028000 -2.470800 -17.387100 13.534888 3.207234 -0.041164 50.256221 -18.257312 50.947940 -47.797822 52.031647 -25.250142 1.403116 0.446045 -14.698845 -34.592176 -24.611093 16.648900 7.125000 0.000000 0.000000 -7.807300 -58.938100 2.669800 
